<?xml version="1.0" encoding="UTF-8"?>
<svg width="60px" height="60px" viewBox="0 0 60 60" version="1.1" xmlns="http://www.w3.org/2000/svg" xmlns:xlink="http://www.w3.org/1999/xlink">
    <!-- Generator: Sketch 41 (35326) - http://www.bohemiancoding.com/sketch -->
    <title>icon-pinterest</title>
    <desc>Created with Sketch.</desc>
    <defs></defs>
    <g id="Redlines" stroke="none" stroke-width="1" fill="none" fill-rule="evenodd">
        <g id="About" transform="translate(-587.000000, -2059.000000)">
            <g id="social-icons" transform="translate(367.000000, 2059.000000)">
                <g id="social-icons-copy">
                    <g id="icon-pinterest" transform="translate(223.000000, 4.000000)">
                        <path d="M14.8410042,22.9951238 C14.8410042,26.2976962 16.0984042,29.2358042 18.7952839,30.3306903 C19.2375078,30.51047 19.6336221,30.3368749 19.7618713,29.8499982 C19.8510881,29.5130445 20.0621203,28.662983 20.1562698,28.3089684 C20.2855914,27.8274232 20.2354069,27.6585198 19.8785395,27.2388206 C19.1008945,26.3266998 18.6039824,25.1458692 18.6039824,23.4732568 C18.6039824,18.6206976 22.2550105,14.2765545 28.1111533,14.2765545 C33.2966685,14.2765545 36.1456029,17.4272845 36.1456029,21.6351532 C36.1456029,27.1716431 33.6816307,31.8444227 30.0237396,31.8444227 C28.0037071,31.8444227 26.4915243,30.1831132 26.976212,28.1456098 C27.5565505,25.7131456 28.6807686,23.0878927 28.6807686,21.3321082 C28.6807686,19.7603687 27.8323507,18.4494483 26.0765373,18.4494483 C24.0114673,18.4494483 22.3525915,20.5737492 22.3525915,23.4195148 C22.3525915,25.232027 22.9685309,26.4578558 22.9685309,26.4578558 C22.9685309,26.4578558 20.8552067,35.3617497 20.484828,36.9211201 C19.7470733,40.0266386 20.3739504,43.8335751 20.4269229,44.2180862 C20.4580201,44.4458498 20.7524786,44.5000183 20.885875,44.327916 C21.0763186,44.0807456 23.5357871,41.0613849 24.3719806,38.04437 C24.608534,37.1900432 25.7301786,32.7663535 25.7301786,32.7663535 C26.4010207,34.0388867 28.3618613,35.1597908 30.4470908,35.1597908 C36.654525,35.1597908 40.8659465,29.5324514 40.8659465,22.0000442 C40.8659465,16.304461 36.0145656,11 28.6410929,11 C19.4667694,11 14.8410042,17.5407397 14.8410042,22.9951238 Z" id="Path" fill="#F99B0C"></path>
                        <ellipse id="Oval-3-Copy-3" stroke="#F99B0C" stroke-width="2" cx="26.8912134" cy="26" rx="26.1087866" ry="26"></ellipse>
                    </g>
                </g>
            </g>
        </g>
    </g>
</svg>