<?xml version="1.0" encoding="utf-8"?>
<!-- Generator: Adobe Illustrator 21.0.0, SVG Export Plug-In . SVG Version: 6.00 Build 0)  -->
<svg version="1.1" id="Layer_1" xmlns="http://www.w3.org/2000/svg" xmlns:xlink="http://www.w3.org/1999/xlink" x="0px" y="0px"
	 viewBox="0 0 60 60" style="enable-background:new 0 0 60 60;" xml:space="preserve">
<style type="text/css">
	.st0{fill:#FFFFFF;}
</style>
<title>icon-pinterest</title>
<desc>Created with Sketch.</desc>
<path id="Path" class="st0" d="M17.8,27c0,3.3,1.3,6.2,4,7.3c0.4,0.2,0.8,0,1-0.5c0.1-0.3,0.3-1.2,0.4-1.5c0.1-0.5,0.1-0.7-0.3-1.1
	c-0.8-0.9-1.3-2.1-1.3-3.8c0-4.9,3.7-9.2,9.5-9.2c5.2,0,8,3.2,8,7.4c0,5.5-2.5,10.2-6.1,10.2c-2,0-3.5-1.7-3-3.7
	c0.6-2.4,1.7-5.1,1.7-6.8c0-1.6-0.8-2.9-2.6-2.9c-2.1,0-3.7,2.1-3.7,5c0,1.8,0.6,3,0.6,3s-2.1,8.9-2.5,10.5
	c-0.7,3.1-0.1,6.9-0.1,7.3c0,0.2,0.3,0.3,0.5,0.1c0.2-0.2,2.6-3.3,3.5-6.3c0.2-0.9,1.4-5.3,1.4-5.3c0.7,1.3,2.6,2.4,4.7,2.4
	c6.2,0,10.4-5.6,10.4-13.2c0-5.7-4.9-11-12.2-11C22.5,15,17.8,21.5,17.8,27z"/>
<path class="st0" d="M29.9,57C14.9,57,2.8,44.9,2.8,30S14.9,3,29.9,3S57,15.1,57,30S44.8,57,29.9,57z M29.9,5C16,5,4.8,16.2,4.8,30
	S16,55,29.9,55S55,43.8,55,30S43.7,5,29.9,5z"/>
</svg>
