<?xml version="1.0" encoding="utf-8"?>
<!-- Generator: Adobe Illustrator 21.0.0, SVG Export Plug-In . SVG Version: 6.00 Build 0)  -->
<svg version="1.1" id="Layer_1" xmlns="http://www.w3.org/2000/svg" xmlns:xlink="http://www.w3.org/1999/xlink" x="0px" y="0px"
	 viewBox="0 0 60 60" style="enable-background:new 0 0 60 60;" xml:space="preserve">
<style type="text/css">
	.st0{fill:#F99B0C;}
</style>
<title>icon-facebook</title>
<desc>Created with Sketch.</desc>
<path class="st0" d="M30.1,57C15.2,57,3,44.9,3,30S15.2,3,30.1,3s27.1,12.1,27.1,27S45.1,57,30.1,57z M30.1,5C16.3,5,5,16.2,5,30
	s11.3,25,25.1,25s25.1-11.2,25.1-25S44,5,30.1,5z"/>
<path id="Path" class="st0" d="M32.6,46.6V30.3h4.5l0.6-5.6h-5.1l0-2.8c0-1.5,0.1-2.3,2.3-2.3h2.8V14h-4.5c-5.4,0-7.3,2.7-7.3,7.3
	v3.4h-3.4v5.6h3.4v16.3H32.6z"/>
</svg>
