<?xml version="1.0" encoding="utf-8"?>
<!-- Generator: Adobe Illustrator 21.0.0, SVG Export Plug-In . SVG Version: 6.00 Build 0)  -->
<svg version="1.1" id="Layer_1" xmlns="http://www.w3.org/2000/svg" xmlns:xlink="http://www.w3.org/1999/xlink" x="0px" y="0px"
	 viewBox="0 0 60 60" style="enable-background:new 0 0 60 60;" xml:space="preserve">
<style type="text/css">
	.st0{fill:#F99B0C;}
</style>
<title>icon-instagram</title>
<desc>Created with Sketch.</desc>
<path class="st0" d="M30.6,57C15.7,57,3.5,44.9,3.5,30S15.7,3,30.6,3s27.1,12.1,27.1,27S45.6,57,30.6,57z M30.6,5
	C16.8,5,5.5,16.2,5.5,30s11.3,25,25.1,25c13.8,0,25.1-11.2,25.1-25S44.5,5,30.6,5z"/>
<g>
	<path class="st0" d="M46.5,23.4c-0.1-1.7-0.3-2.9-0.7-3.9c-0.4-1.1-1-1.9-1.8-2.8c-0.9-0.9-1.8-1.4-2.8-1.8c-1-0.4-2.2-0.7-3.9-0.7
		C35.5,14,35,14,30.6,14c-4.3,0-4.9,0-6.6,0.1c-1.7,0.1-2.9,0.3-3.9,0.7c-1.1,0.4-1.9,1-2.8,1.8c-0.9,0.9-1.4,1.8-1.8,2.8
		c-0.4,1-0.7,2.2-0.7,3.9c-0.1,1.7-0.1,2.3-0.1,6.6s0,4.9,0.1,6.6c0.1,1.7,0.3,2.9,0.7,3.9c0.4,1.1,1,1.9,1.8,2.8
		c0.9,0.9,1.8,1.4,2.8,1.8c1,0.4,2.2,0.7,3.9,0.7c1.7,0.1,2.3,0.1,6.6,0.1c4.3,0,4.9,0,6.6-0.1c1.7-0.1,2.9-0.3,3.9-0.7
		c1.1-0.4,1.9-1,2.8-1.8c0.9-0.9,1.4-1.8,1.8-2.8c0.4-1,0.7-2.2,0.7-3.9c0.1-1.7,0.1-2.3,0.1-6.6S46.6,25.1,46.5,23.4z M43.7,36.5
		c-0.1,1.6-0.3,2.4-0.6,3c-0.3,0.7-0.6,1.3-1.2,1.8c-0.6,0.6-1.1,0.9-1.8,1.2c-0.6,0.2-1.4,0.5-3,0.6c-1.7,0.1-2.2,0.1-6.5,0.1
		c-4.3,0-4.8,0-6.5-0.1c-1.6-0.1-2.4-0.3-3-0.6c-0.7-0.3-1.3-0.6-1.8-1.2s-0.9-1.1-1.2-1.8c-0.2-0.6-0.5-1.4-0.6-3
		c-0.1-1.7-0.1-2.2-0.1-6.5s0-4.8,0.1-6.5c0.1-1.6,0.3-2.4,0.6-3c0.3-0.7,0.6-1.3,1.2-1.8s1.1-0.9,1.8-1.2c0.6-0.2,1.4-0.5,3-0.6
		c1.5-0.1,2-0.1,5-0.1v0c0.4,0,0.9,0,1.4,0c4.3,0,4.8,0,6.5,0.1c1.6,0.1,2.4,0.3,3,0.6c0.7,0.3,1.3,0.6,1.8,1.2
		c0.6,0.6,0.9,1.1,1.2,1.8c0.2,0.6,0.5,1.4,0.6,3c0.1,1.7,0.1,2.2,0.1,6.5S43.7,34.8,43.7,36.5z"/>
	<polygon class="st0" points="30.6,14 30.6,14 30.6,14 	"/>
	<polygon class="st0" points="30.6,21.8 30.6,21.8 30.6,21.8 	"/>
	<path class="st0" d="M30.6,21.8c-4.5,0-8.2,3.7-8.2,8.2c0,4.5,3.7,8.2,8.2,8.2c4.5,0,8.2-3.7,8.2-8.2
		C38.8,25.5,35.2,21.8,30.6,21.8z M30.6,35.3c-2.9,0-5.3-2.4-5.3-5.3c0-2.9,2.4-5.3,5.3-5.3c2.9,0,5.3,2.4,5.3,5.3
		C36,32.9,33.6,35.3,30.6,35.3z"/>
	<path class="st0" d="M39.2,19.5L39.2,19.5c-1.1,0-1.9,0.9-1.9,1.9c0,1.1,0.9,1.9,1.9,1.9s1.9-0.9,1.9-1.9S40.2,19.5,39.2,19.5z"/>
</g>
</svg>
