<?xml version="1.0" encoding="UTF-8"?>
<svg width="60px" height="60px" viewBox="0 0 60 60" version="1.1" xmlns="http://www.w3.org/2000/svg" xmlns:xlink="http://www.w3.org/1999/xlink">
    <!-- Generator: Sketch 41 (35326) - http://www.bohemiancoding.com/sketch -->
    <title>icon-youtube</title>
    <desc>Created with Sketch.</desc>
    <defs></defs>
    <g id="Redlines" stroke="none" stroke-width="1" fill="none" fill-rule="evenodd">
        <g id="About" transform="translate(-660.000000, -2059.000000)">
            <g id="social-icons" transform="translate(367.000000, 2059.000000)">
                <g id="social-icons-copy">
                    <g id="icon-youtube" transform="translate(296.000000, 4.000000)">
                        <ellipse id="Oval-3-Copy-4" stroke="#F99B0C" stroke-width="2" cx="26.8912134" cy="26" rx="26.1087866" ry="26"></ellipse>
                        <path d="M42.5712134,19.4613454 C42.5712134,19.4613454 42.2582134,17.2080464 41.2992134,16.2157773 C40.0822134,14.9128493 38.7182134,14.9067179 38.0932134,14.831097 C33.6152134,14.5 26.8982134,14.5 26.8982134,14.5 L26.8842134,14.5 C26.8842134,14.5 20.1672134,14.5 15.6892134,14.831097 C15.0632134,14.9067179 13.7002134,14.9128493 12.4822134,16.2157773 C11.5232134,17.2080464 11.2112134,19.4613454 11.2112134,19.4613454 C11.2112134,19.4613454 10.8912134,22.1080775 10.8912134,24.7537877 L10.8912134,27.2349713 C10.8912134,29.8817035 11.2112134,32.5274137 11.2112134,32.5274137 C11.2112134,32.5274137 11.5232134,34.7807127 12.4822134,35.7729817 C13.7002134,37.0759097 15.2992134,37.0350335 16.0112134,37.1709468 C18.5712134,37.4223353 26.8912134,37.5 26.8912134,37.5 C26.8912134,37.5 33.6152134,37.489781 38.0932134,37.158684 C38.7182134,37.0820411 40.0822134,37.0759097 41.2992134,35.7729817 C42.2582134,34.7807127 42.5712134,32.5274137 42.5712134,32.5274137 C42.5712134,32.5274137 42.8912134,29.8817035 42.8912134,27.2349713 L42.8912134,24.7537877 C42.8912134,22.1080775 42.5712134,19.4613454 42.5712134,19.4613454 Z M23.5872134,30.2414138 L23.5862134,21.0534723 L32.2322134,25.6632825 L23.5872134,30.2414138 Z" id="Combined-Shape" fill="#F99B0C"></path>
                    </g>
                </g>
            </g>
        </g>
    </g>
</svg>