<?xml version="1.0" encoding="UTF-8"?>
<svg width="60px" height="60px" viewBox="0 0 60 60" version="1.1" xmlns="http://www.w3.org/2000/svg" xmlns:xlink="http://www.w3.org/1999/xlink">
    <!-- Generator: Sketch 41 (35326) - http://www.bohemiancoding.com/sketch -->
    <title>icon-facebook copy</title>
    <desc>Created with Sketch.</desc>
    <defs></defs>
    <g id="Redlines" stroke="none" stroke-width="1" fill="none" fill-rule="evenodd">
        <g id="About" transform="translate(-441.000000, -2059.000000)">
            <g id="social-icons" transform="translate(367.000000, 2059.000000)">
                <g id="social-icons-copy">
                    <g id="icon-twitter" transform="translate(78.000000, 4.000000)">
                        <ellipse id="Oval-3-Copy" stroke="#F99B0C" stroke-width="2" cx="26.3682008" cy="26" rx="26.1087866" ry="26"></ellipse>
                        <path d="M26.9511794,21.2076506 L27.014396,22.2457182 L25.9607869,22.1186079 C22.1256501,21.6313516 18.7751734,19.9789174 15.930429,17.2036752 L14.539665,15.8266467 L14.181438,16.8435293 C13.4228395,19.1103301 13.9074996,21.5042413 15.4879132,23.1143055 C16.3308004,24.0040778 16.1411508,24.1311881 14.6871703,23.6015617 C14.181438,23.4320813 13.7389222,23.304971 13.6967778,23.3685261 C13.5492726,23.5168215 14.0550049,25.4446615 14.4553763,26.2073235 C15.003253,27.2665762 16.1200786,28.3046439 17.3422651,28.9190105 L18.3748019,29.4062667 L17.1526154,29.4274518 C15.9725733,29.4274518 15.930429,29.4486368 16.056862,29.893523 C16.4783057,31.2705515 18.1430079,32.7323203 19.9973598,33.367872 L21.303835,33.8127581 L20.1659373,34.4906799 C18.4801628,35.4651924 16.4993778,36.0160038 14.5185929,36.0583739 C13.5703447,36.079559 12.7906741,36.1642992 12.7906741,36.2278543 C12.7906741,36.4397049 15.3614801,37.626068 16.8576049,38.0921392 C21.3459794,39.4691677 26.6772411,38.8759862 30.6809554,36.5244451 C33.5256998,34.8508258 36.3704442,31.5247722 37.6979916,28.3046439 C38.4144457,26.5886545 39.1308998,23.4532664 39.1308998,21.9491275 C39.1308998,20.9746149 39.1941164,20.8475046 40.3741585,19.6823266 C41.0695405,19.0044049 41.7227781,18.2629279 41.8492111,18.0510774 C42.059933,17.6485614 42.0388608,17.6485614 40.9641796,18.0087073 C39.1730442,18.6442589 38.920178,18.5595187 39.8052096,17.6061912 C40.4584472,16.9282695 41.2381179,15.6995363 41.2381179,15.3393904 C41.2381179,15.2758352 40.9220352,15.3817605 40.5638081,15.572426 C40.1845089,15.7842765 39.3416216,16.1020524 38.7094562,16.2927179 L37.5715585,16.6528638 L36.5390216,15.953757 C35.9700727,15.572426 35.1693299,15.1487249 34.7478863,15.0216146 C33.6732051,14.7250238 32.029575,14.7673939 31.0602547,15.1063548 C28.4262321,16.0596823 26.7615298,18.5171486 26.9511794,21.2076506 Z" id="Path" fill="#F99B0C"></path>
                    </g>
                </g>
            </g>
        </g>
    </g>
</svg>