<?xml version="1.0" encoding="utf-8"?>
<!-- Generator: Adobe Illustrator 21.0.0, SVG Export Plug-In . SVG Version: 6.00 Build 0)  -->
<svg version="1.1" id="Layer_1" xmlns="http://www.w3.org/2000/svg" xmlns:xlink="http://www.w3.org/1999/xlink" x="0px" y="0px"
	 viewBox="0 0 60 60" style="enable-background:new 0 0 60 60;" xml:space="preserve">
<style type="text/css">
	.st0{fill:#FFFFFF;}
</style>
<title>icon-youtube</title>
<desc>Created with Sketch.</desc>
<path class="st0" d="M29.9,57C14.9,57,2.8,44.9,2.8,30S14.9,3,29.9,3S57,15.1,57,30S44.8,57,29.9,57z M29.9,5C16,5,4.8,16.2,4.8,30
	S16,55,29.9,55S55,43.8,55,30S43.7,5,29.9,5z"/>
<path id="Combined-Shape" class="st0" d="M45.6,23.5c0,0-0.3-2.3-1.3-3.2c-1.2-1.3-2.6-1.3-3.2-1.4c-4.5-0.3-11.2-0.3-11.2-0.3h0
	c0,0-6.7,0-11.2,0.3c-0.6,0.1-2,0.1-3.2,1.4c-1,1-1.3,3.2-1.3,3.2s-0.3,2.6-0.3,5.3v2.5c0,2.6,0.3,5.3,0.3,5.3s0.3,2.3,1.3,3.2
	c1.2,1.3,2.8,1.3,3.5,1.4c2.6,0.3,10.9,0.3,10.9,0.3s6.7,0,11.2-0.3c0.6-0.1,2-0.1,3.2-1.4c1-1,1.3-3.2,1.3-3.2s0.3-2.6,0.3-5.3
	v-2.5C45.9,26.1,45.6,23.5,45.6,23.5z M26.6,34.2l0-9.2l8.6,4.6L26.6,34.2z"/>
</svg>
