<?xml version="1.0" encoding="UTF-8"?>
<svg width="28px" height="28px" viewBox="0 0 28 28" version="1.1" xmlns="http://www.w3.org/2000/svg" xmlns:xlink="http://www.w3.org/1999/xlink">
    <!-- Generator: Sketch 41.1 (35376) - http://www.bohemiancoding.com/sketch -->
    <title>social-footer-pinterest</title>
    <desc>Created with Sketch.</desc>
    <defs></defs>
    <g id="Symbols" stroke="none" stroke-width="1" fill="none" fill-rule="evenodd">
        <g id="footer" transform="translate(-800.000000, -167.000000)">
            <g id="social-icons">
                <g transform="translate(691.000000, 168.000000)">
                    <g id="social-footer-pinterest" transform="translate(109.000000, 0.000000)">
                        <path d="M7.92050209,10.9975619 C7.92050209,12.6488481 8.54920211,14.1179021 9.89764194,14.6653452 C10.1187539,14.755235 10.316811,14.6684375 10.3809356,14.4249991 C10.4255441,14.2565223 10.5310602,13.8314915 10.5781349,13.6544842 C10.6427957,13.4137116 10.6177034,13.3292599 10.4392697,13.1194103 C10.0504472,12.6633499 9.80199118,12.0729346 9.80199118,11.2366284 C9.80199118,8.81034878 11.6275053,6.63827723 14.5555767,6.63827723 C17.1483343,6.63827723 18.5728014,8.21364223 18.5728014,10.3175766 C18.5728014,13.0858216 17.3408153,15.4222113 15.5118698,15.4222113 C14.5018535,15.4222113 13.7457622,14.5915566 13.988106,13.5728049 C14.2782752,12.3565728 14.8403843,11.0439464 14.8403843,10.1660541 C14.8403843,9.38018433 14.4161753,8.72472416 13.5382686,8.72472416 C12.5057337,8.72472416 11.6762957,9.78687461 11.6762957,11.2097574 C11.6762957,12.1160135 11.9842654,12.7289279 11.9842654,12.7289279 C11.9842654,12.7289279 10.9276033,17.1808749 10.742414,17.96056 C10.3735366,19.5133193 10.6869752,21.4167876 10.7134614,21.6090431 C10.72901,21.7229249 10.8762393,21.7500092 10.9429375,21.663958 C11.0381593,21.5403728 12.2678935,20.0306924 12.6859903,18.522185 C12.804267,18.0950216 13.3650893,15.8831767 13.3650893,15.8831767 C13.7005103,16.5194433 14.6809306,17.0798954 15.7235454,17.0798954 C18.8272625,17.0798954 20.9329732,14.2662257 20.9329732,10.5000221 C20.9329732,7.65223051 18.5072828,5 14.8205464,5 C10.2333847,5 7.92050209,8.27036987 7.92050209,10.9975619 Z" id="Path" fill="#FFFFFF"></path>
                        <ellipse id="Oval-3-Copy-3" stroke="#FFFFFF" cx="13.9456067" cy="13" rx="13.0543933" ry="13"></ellipse>
                    </g>
                </g>
            </g>
        </g>
    </g>
</svg>