<?xml version="1.0" encoding="UTF-8"?>
<svg width="28px" height="28px" viewBox="0 0 28 28" version="1.1" xmlns="http://www.w3.org/2000/svg" xmlns:xlink="http://www.w3.org/1999/xlink">
    <!-- Generator: Sketch 41.1 (35376) - http://www.bohemiancoding.com/sketch -->
    <title>social-footer-youtube</title>
    <desc>Created with Sketch.</desc>
    <defs></defs>
    <g id="Symbols" stroke="none" stroke-width="1" fill="none" fill-rule="evenodd">
        <g id="footer" transform="translate(-836.000000, -167.000000)">
            <g id="social-icons">
                <g transform="translate(691.000000, 168.000000)">
                    <g id="social-footer-youtube" transform="translate(145.000000, 0.000000)">
                        <ellipse id="Oval-3-Copy-3" stroke="#FFFFFF" cx="13.9456067" cy="13" rx="13.0543933" ry="13"></ellipse>
                        <path d="M20.7053542,10.1038937 C20.7053542,10.1038937 20.5654823,9.0969507 20.1369292,8.65353045 C19.5930823,8.0712845 18.9835448,8.06854452 18.7042479,8.03475142 C16.7031416,7.88679245 13.7014822,7.88679245 13.7014822,7.88679245 L13.695226,7.88679245 C13.695226,7.88679245 10.6935665,7.88679245 8.69246027,8.03475142 C8.41271652,8.06854452 7.80362588,8.0712845 7.25933213,8.65353045 C6.83077899,9.0969507 6.69135399,10.1038937 6.69135399,10.1038937 C6.69135399,10.1038937 6.54835399,11.2866521 6.54835399,12.4689539 L6.54835399,13.5777328 C6.54835399,14.7604913 6.69135399,15.9427931 6.69135399,15.9427931 C6.69135399,15.9427931 6.83077899,16.949736 7.25933213,17.3931563 C7.80362588,17.9754022 8.51817902,17.9571357 8.83635402,18.0178719 C9.98035404,18.1302112 13.6983541,18.1649176 13.6983541,18.1649176 C13.6983541,18.1649176 16.7031416,18.160351 18.7042479,18.012392 C18.9835448,17.9781422 19.5930823,17.9754022 20.1369292,17.3931563 C20.5654823,16.949736 20.7053542,15.9427931 20.7053542,15.9427931 C20.7053542,15.9427931 20.8483542,14.7604913 20.8483542,13.5777328 L20.8483542,12.4689539 C20.8483542,11.2866521 20.7053542,10.1038937 20.7053542,10.1038937 Z M12.2218791,14.9212368 L12.2214322,10.8153754 L16.0851135,12.8753844 L12.2218791,14.9212368 Z" id="Combined-Shape" fill="#FFFFFF"></path>
                    </g>
                </g>
            </g>
        </g>
    </g>
</svg>