<?xml version="1.0" encoding="UTF-8"?>
<svg width="28px" height="28px" viewBox="0 0 28 28" version="1.1" xmlns="http://www.w3.org/2000/svg" xmlns:xlink="http://www.w3.org/1999/xlink">
    <!-- Generator: Sketch 41.1 (35376) - http://www.bohemiancoding.com/sketch -->
    <title>social-footer-twitter</title>
    <desc>Created with Sketch.</desc>
    <defs></defs>
    <g id="Symbols" stroke="none" stroke-width="1" fill="none" fill-rule="evenodd">
        <g id="footer" transform="translate(-727.000000, -167.000000)">
            <g id="social-icons">
                <g transform="translate(691.000000, 168.000000)">
                    <g id="social-footer-twitter" transform="translate(37.000000, 0.000000)">
                        <ellipse id="Oval-3-Copy" stroke="#FFFFFF" cx="13.1841004" cy="13" rx="13.0543933" ry="13"></ellipse>
                        <path d="M13.4755897,10.6038253 L13.507198,11.1228591 L12.9803935,11.059304 C11.062825,10.8156758 9.38758668,9.98945869 7.96521448,8.6018376 L7.26983252,7.91332333 L7.09071899,8.42176464 C6.71141974,9.55516507 6.95374981,10.7521207 7.74395659,11.5571527 C8.1654002,12.0020389 8.07057539,12.0655941 7.34358515,11.8007809 C7.09071899,11.7160406 6.86946109,11.6524855 6.84838891,11.6842631 C6.77463628,11.7584108 7.02750244,12.7223307 7.22768816,13.1036617 C7.50162651,13.6332881 8.0600393,14.1523219 8.67113253,14.4595052 L9.18740096,14.7031334 L8.57630772,14.7137259 C7.98628666,14.7137259 7.96521448,14.7243184 8.02843102,14.9467615 C8.23915283,15.6352758 9.07150397,16.3661602 9.99867991,16.683936 L10.6519175,16.9063791 L10.0829686,17.2453399 C9.24008141,17.7325962 8.24968892,18.0080019 7.25929643,18.029187 C6.78517237,18.0397795 6.39533703,18.0821496 6.39533703,18.1139272 C6.39533703,18.2198524 7.68074004,18.813034 8.42880246,19.0460696 C10.6729897,19.7345839 13.3386205,19.4379931 15.3404777,18.2622226 C16.7628499,17.4254129 18.1852221,15.7623861 18.8489958,14.1523219 C19.2072229,13.2943272 19.5654499,11.7266332 19.5654499,10.9745637 C19.5654499,10.4873075 19.5970582,10.4237523 20.1870792,9.84116331 C20.5347702,9.50220243 20.861389,9.13146397 20.9246056,9.0255387 C21.0299665,8.82428068 21.0194304,8.82428068 20.4820898,9.00435364 C19.5865221,9.32212947 19.460089,9.27975936 19.9026048,8.80309562 C20.2292236,8.46413475 20.619059,7.84976816 20.619059,7.6696952 C20.619059,7.63791762 20.4610176,7.69088025 20.2819041,7.786213 C20.0922544,7.89213827 19.6708108,8.05102618 19.3547281,8.14635893 L18.7857792,8.32643189 L18.2695108,7.97687849 C17.9850364,7.786213 17.5846649,7.57436245 17.3739431,7.51080729 C16.8366025,7.3625119 16.0147875,7.38369696 15.5301273,7.5531774 C14.213116,8.02984113 13.3807649,9.2585743 13.4755897,10.6038253 Z" id="Path" fill="#FFFFFF"></path>
                    </g>
                </g>
            </g>
        </g>
    </g>
</svg>