<?xml version="1.0" encoding="UTF-8"?>
<svg width="28px" height="28px" viewBox="0 0 28 28" version="1.1" xmlns="http://www.w3.org/2000/svg" xmlns:xlink="http://www.w3.org/1999/xlink">
    <!-- Generator: Sketch 41.1 (35376) - http://www.bohemiancoding.com/sketch -->
    <title>social-footer-instagram</title>
    <desc>Created with Sketch.</desc>
    <defs></defs>
    <g id="Symbols" stroke="none" stroke-width="1" fill="none" fill-rule="evenodd">
        <g id="footer" transform="translate(-763.000000, -167.000000)">
            <g id="social-icons">
                <g transform="translate(691.000000, 168.000000)">
                    <g id="social-footer-instagram" transform="translate(73.000000, 0.000000)">
                        <ellipse id="Oval-3-Copy-2" stroke="#FFFFFF" cx="13.3138075" cy="13" rx="13.0543933" ry="13"></ellipse>
                        <path d="M19.8284715,20.7133923 C20.4549013,20.5811853 20.9667776,20.0615049 21.0892162,19.4348828 C21.1023581,19.3671457 21.1119955,19.2983196 21.1231661,19.2303648 L21.1231661,7.02462807 C21.1124335,6.95776224 21.1032342,6.8906786 21.0900923,6.82403058 C20.9558261,6.14034379 20.3887538,5.60977322 19.692453,5.51502848 C19.6635409,5.51132581 19.6352858,5.50500949 19.6068118,5.5 L7.29878107,5.5 C7.22452943,5.51328604 7.14983972,5.52330503 7.07668324,5.53985813 C6.39702885,5.69384557 5.89413279,6.23813779 5.79732091,6.9229136 C5.79337835,6.95144592 5.7874645,6.97976044 5.78242678,7.00829277 L5.78242678,19.2473535 C5.79644479,19.3248917 5.80761539,19.4030834 5.8251379,19.480186 C5.97539343,20.1410034 6.54268472,20.6532784 7.21752042,20.7395288 C7.2501561,20.7434492 7.28301081,20.7497656 7.31564648,20.7549929 L19.5899463,20.7549929 C19.6696738,20.741489 19.7496202,20.730381 19.8284715,20.7133923 Z M7.44202759,11.726581 C7.44202759,13.9841196 7.44180856,16.2416582 7.44224662,18.4991967 C7.44224662,18.8239425 7.72501614,19.1031672 8.05159194,19.1031672 C11.6515918,19.1033851 15.2513726,19.1033851 18.8513725,19.1031672 C19.1810148,19.1031672 19.4622511,18.8243781 19.4622511,18.4972365 C19.4624701,16.2423116 19.4622511,13.9876045 19.4622511,11.7328974 L19.4622511,11.6860695 L17.9978072,11.6860695 C18.2045728,12.3431842 18.2680919,13.0116247 18.1870503,13.6929156 C18.1055706,14.3744244 17.884787,15.0086697 17.5251375,15.5943446 C17.1652689,16.180673 16.698732,16.666376 16.1274982,17.0529781 C14.646846,18.0557478 12.6974667,18.1439584 11.1263545,17.2670794 C10.3321467,16.8242839 9.70856438,16.2068095 9.27378708,15.4111715 C8.62523514,14.2239218 8.5216333,12.9778651 8.90209082,11.6849805 C8.4162792,11.6854161 7.93243887,11.6854161 7.44202759,11.6854161 L7.44202759,11.726581 Z M10.3444125,13.0806686 C10.319881,14.8102502 11.7122635,16.1813265 13.3815017,16.2170463 C15.1184206,16.254073 16.5232879,14.8740668 16.5598661,13.1956691 C16.5973205,11.4647806 15.1933293,10.0351151 13.4529059,10.0362041 C11.7514701,10.0351151 10.3682869,11.3963902 10.3444125,13.0806686 Z M18.8726186,9.41241343 C19.1974421,9.40435468 19.462032,9.12752579 19.462032,8.80408683 C19.4622511,8.32252217 19.4622511,7.8407397 19.462032,7.35917503 C19.462032,7.01373787 19.1871476,6.73886921 18.8402019,6.7386514 C18.3572377,6.7384336 17.8742735,6.7382158 17.3910903,6.7386514 C17.0450207,6.73908701 16.7692602,7.01460909 16.7690411,7.36004625 C16.7688221,7.83747264 16.7675079,8.31489903 16.7707934,8.79254322 C16.7712314,8.86376513 16.7848114,8.93781849 16.8075906,9.00533774 C16.8943271,9.25951502 17.1284716,9.41546269 17.4151837,9.41676951 C17.6482331,9.41720512 17.8812825,9.41655171 18.1145509,9.41655171 C18.3668751,9.41372026 18.6200754,9.41851194 18.8726186,9.41241343 Z" id="Path" fill="#FFFFFF"></path>
                    </g>
                </g>
            </g>
        </g>
    </g>
</svg>