<?xml version="1.0" encoding="utf-8"?>
<!-- Generator: Adobe Illustrator 21.0.0, SVG Export Plug-In . SVG Version: 6.00 Build 0)  -->
<svg version="1.1" id="icon" xmlns="http://www.w3.org/2000/svg" xmlns:xlink="http://www.w3.org/1999/xlink" x="0px" y="0px"
	 viewBox="0 0 605.5 146.7" style="enable-background:new 0 0 605.5 146.7;" xml:space="preserve">
<style type="text/css">
	.st0{fill:#F99B0C;}
	.st1{fill:#B64B9F;}
</style>
<title>Artboard 1</title>
<g>
	<g id="icon-2">
		<path class="st0" d="M136.3,62.8l-20.6-20.7c-0.6-0.7-0.9-1.5-1-2.4V7.6c0-2.1-1.7-3.8-3.8-3.8l0,0H92.7c-2.1,0-3.7,1.6-3.8,3.7
			l-0.2,7.7L75.5,2c-2.6-2.6-6.7-2.7-9.6-0.4L1.4,56.7c-1.6,1.3-1.9,3.7-0.6,5.3c1.3,1.6,3.7,1.9,5.3,0.6c0.1,0,0.1-0.1,0.2-0.1
			L70.5,7.7l16.9,16.9c3.5,3.5,8.5,1.5,8.7-3.4l0.3-9.8h10.7v28.4c0.1,2.9,1.2,5.7,3.2,7.8l16.3,16.3H19.4c-3.8,0-6.8,3-6.8,6.8l0,0
			v69.3c0,3.8,3,6.8,6.8,6.8l0,0h102.4c3.8,0,6.8-3,6.8-6.8l0,0v-55c0-2.1-1.7-3.8-3.8-3.8s-3.8,1.7-3.8,3.8v54.2H20.2V71.4h112.6
			C137.8,71.4,139.9,66.4,136.3,62.8z"/>
		<circle class="st1" cx="88.1" cy="91.7" r="6"/>
		<circle class="st1" cx="53.9" cy="91.7" r="6"/>
		<path class="st1" d="M109.3,103.6c-1.6-1.1-3.8-0.6-4.8,1c-12.2,18.8-37.2,24.1-56,12c-4.4-2.8-8.2-6.5-11.2-10.8
			c-1.2-1.5-3.3-1.9-4.9-0.7c-1.5,1.1-1.8,3.2-0.8,4.7c15,21.5,44.6,26.8,66.1,11.8c5-3.5,9.3-8,12.7-13.1
			C111.3,106.8,110.9,104.6,109.3,103.6z"/>
	</g>
	<path class="st1" d="M241.3,86.7c-1.7,0-3.1,1.2-3.5,2.8l-15,43.1l-14.1-43.1c-0.4-1.7-1.9-2.8-3.6-2.8h-0.4
		c-1.7,0-3.2,1.2-3.6,2.8l-14.1,43.1L172,89.7c-0.5-1.7-2-2.9-3.8-3c-2.1,0-3.7,1.7-3.8,3.7c0,0.5,0.1,1.1,0.3,1.6l0.5-0.1l-0.5,0.2
		l17.9,49.7c0.7,2,2,3.1,3.8,3.1h0.5c1.7,0,3.1-1.1,3.8-3.1l14-41.5l14,41.5c0.4,1.7,2,3,3.8,3.1h0.5c1.8-0.1,3.3-1.3,3.8-3.1
		l17.9-49.7l0.1-0.3c0.2-0.4,0.3-0.9,0.3-1.4C244.9,88.4,243.3,86.8,241.3,86.7z"/>
	<path class="st1" d="M265.9,100.9c-11.4,0-20.3,9.7-20.3,22v0.2c0,12.5,9.1,22,21.1,22c6,0.2,11.7-2.1,15.9-6.4
		c0.7-0.6,1.1-1.5,1.1-2.4c0-1.8-1.5-3.2-3.2-3.1c0,0,0,0,0,0c-0.8,0-1.5,0.3-2.1,0.9c-3.1,3-7.2,4.7-11.5,4.6
		c-7.4,0-13-5.2-14-12.9h29.3c1.9,0,3.4-1.5,3.4-3.4v0C285.6,111.7,278.8,100.9,265.9,100.9z M265.7,107.1c8.2,0,11.9,6.6,12.6,13
		h-25.4C253.9,112.4,259.1,107.1,265.7,107.1L265.7,107.1z"/>
	<path class="st1" d="M311.2,100.9c-11.4,0-20.3,9.7-20.3,22v0.2c0,12.5,9.1,22,21.1,22c6,0.2,11.7-2.1,15.9-6.4
		c0.7-0.6,1.1-1.5,1.1-2.4c0-1.8-1.5-3.2-3.2-3.1c0,0,0,0,0,0c-0.8,0-1.5,0.3-2.1,0.9c-3.1,3-7.2,4.7-11.5,4.6
		c-7.4,0-13-5.2-14-12.9h29.3c1.9,0,3.4-1.5,3.4-3.4v0C330.8,111.7,324.1,100.9,311.2,100.9z M311,107.1c8.2,0,11.9,6.6,12.6,13
		h-25.4C299.1,112.4,304.3,107.1,311,107.1L311,107.1z"/>
	<path class="st0" d="M361.3,112.1c-12.5-2.7-14.8-5.6-14.8-10.4v-0.2c0-5,4.7-8.5,11.4-8.5c5.1,0,10.1,1.6,14.1,4.8
		c0.6,0.4,1.4,0.7,2.1,0.7c2,0,3.5-1.6,3.5-3.6c0-1.2-0.6-2.3-1.6-3c-5.2-3.8-11.6-5.8-18.1-5.6c-10.9,0-18.9,6.6-18.9,15.8v0.2
		c0,10.3,7.7,14.1,19.2,16.6c11.9,2.5,14.1,5.5,14.1,10.1v0.2c0,5.3-4.9,9-11.9,9c-6.4,0.1-12.6-2.2-17.3-6.5
		c-0.6-0.6-1.4-0.9-2.3-0.9c-2,0-3.6,1.6-3.6,3.5c0,0,0,0.1,0,0.1c0,1.1,0.5,2.2,1.4,2.8c6,5,13.6,7.7,21.5,7.6
		c11.5,0,19.6-6.7,19.6-16.3v-0.2C380,119.7,374.4,114.9,361.3,112.1z"/>
	<path class="st0" d="M420.4,132.7c-0.8,0-1.6,0.3-2.1,0.9c-3.5,3.3-7.1,4.9-11.1,4.9c-8.2,0-14.6-6.8-14.6-15.5v-0.2
		c0-8.7,6.3-15.4,14.3-15.4c5,0,8.3,2.4,10.9,4.8c0.7,0.5,1.5,0.8,2.3,0.8c1.9,0,3.5-1.6,3.5-3.5c0-1-0.4-1.9-1.1-2.5
		c-8.8-8.4-22.7-8.1-31.1,0.7c-3.9,4.1-6.1,9.5-6.1,15.2v0.2c0,12,9.6,21.8,21.7,21.9c6,0.1,11.8-2.4,15.9-6.8
		c0.6-0.6,0.9-1.4,1-2.3C423.6,134.1,422.2,132.7,420.4,132.7z"/>
	<path class="st0" d="M453.1,100.9c-5.4-0.2-10.5,2.4-13.6,6.9V88c0.1-2-1.4-3.7-3.4-3.8c-2-0.1-3.7,1.4-3.8,3.4c0,0.1,0,0.3,0,0.4
		v52.8c0,2,1.6,3.6,3.5,3.6c0,0,0.1,0,0.1,0c1.9,0,3.5-1.5,3.6-3.5c0-0.1,0-0.1,0-0.2v-20.9c0-7.3,4.9-12.4,11.9-12.4
		c6.8,0,10.9,4.5,10.9,11.9v21.4c0,2,1.6,3.6,3.5,3.6c0,0,0.1,0,0.1,0c2,0,3.6-1.6,3.6-3.5c0,0,0-0.1,0-0.1v-22.9
		C469.4,107.6,463,100.9,453.1,100.9z"/>
	<path class="st0" d="M498,100.9c-12.1-0.1-21.9,9.5-22.1,21.6c0,0.2,0,0.3,0,0.5v0.2c0,12.2,9.9,22,22.1,21.9s22-9.9,21.9-22.1l0,0
		v-0.2c0.1-12-9.6-21.8-21.6-21.9C498.2,100.9,498.1,100.9,498,100.9z M498,138.5c-8.3,0-14.7-6.8-14.7-15.5v-0.2
		c0-8.8,6.3-15.4,14.6-15.4s14.8,6.9,14.8,15.6v0.2C512.6,131.9,506.3,138.5,498,138.5L498,138.5z"/>
	<path class="st0" d="M546.5,100.9c-12.1-0.1-21.9,9.5-22.1,21.6c0,0.2,0,0.3,0,0.5v0.2c0,12.2,9.9,22,22.1,21.9s22-9.9,21.9-22.1
		l0,0v-0.2c0.1-12-9.6-21.8-21.6-21.9C546.8,100.9,546.6,100.9,546.5,100.9z M546.5,138.5c-8.3,0-14.7-6.8-14.7-15.5v-0.2
		c0-8.8,6.3-15.4,14.6-15.4s14.8,6.9,14.8,15.6v0.2C561.2,131.9,554.9,138.5,546.5,138.5L546.5,138.5z"/>
	<path class="st0" d="M580.7,84.4c-2,0-3.6,1.7-3.5,3.6v52.8c0,2,1.6,3.6,3.5,3.6c0,0,0.1,0,0.1,0c1.9,0,3.5-1.5,3.6-3.5
		c0-0.1,0-0.1,0-0.2V88C584.3,86,582.7,84.4,580.7,84.4L580.7,84.4z"/>
	<path class="st0" d="M593.3,89.6L593.3,89.6c0-3.4,2.7-6.1,6.1-6.1c3.4,0,6.1,2.7,6.1,6.1c0,0,0,0,0,0l0,0c0,3.4-2.7,6.1-6.1,6.1
		C596,95.7,593.3,93,593.3,89.6C593.3,89.6,593.3,89.6,593.3,89.6z M604.8,89.6L604.8,89.6c0-3-2.4-5.4-5.4-5.4s-5.4,2.4-5.4,5.4
		l0,0c0,3,2.4,5.4,5.4,5.4S604.8,92.6,604.8,89.6z M597,87c0-0.3,0.3-0.6,0.6-0.6c0,0,0,0,0,0h2.2c1.4,0,2.4,0.7,2.4,2
		c0,0.9-0.5,1.7-1.4,1.9l1.2,1.4c0.1,0.1,0.2,0.3,0.2,0.5c0,0.3-0.2,0.6-0.6,0.6c-0.2,0-0.4-0.1-0.6-0.3l-1.6-2h-1.3v1.6
		c0,0.3-0.3,0.6-0.6,0.6c-0.3,0-0.6-0.3-0.6-0.6c0,0,0,0,0,0L597,87z M599.7,89.4c0.8,0,1.3-0.4,1.3-1s-0.5-1-1.3-1h-1.5v2H599.7z"
		/>
</g>
</svg>
