<svg id="icon" xmlns="http://www.w3.org/2000/svg" viewBox="0 0 812.86 336.03"><defs><style>.cls-1{fill:#fff;}</style></defs><title>Artboard 1 copy</title><g id="icon-2" data-name="icon"><path class="cls-1" d="M255.36,143.09l-20.63-20.67a4.73,4.73,0,0,1-1-2.43V87.86a3.8,3.8,0,0,0-3.8-3.8H211.74a3.8,3.8,0,0,0-3.8,3.68l-.24,7.69L194.56,82.29a7.1,7.1,0,0,0-9.55-.37L120.45,137a3.8,3.8,0,1,0,4.93,5.78L189.55,88l16.87,16.87c3.53,3.53,8.54,1.52,8.7-3.45l.3-9.79h10.69V120a12,12,0,0,0,3.23,7.8l16.28,16.31H138.42a6.8,6.8,0,0,0-6.8,6.8v69.28a6.8,6.8,0,0,0,6.8,6.8H240.79a6.8,6.8,0,0,0,6.8-6.8v-55a3.8,3.8,0,0,0-7.6,0v54.19H139.23V151.7H251.8C256.84,151.7,258.92,146.66,255.36,143.09Z"/><circle class="cls-1" cx="207.18" cy="172" r="6"/><circle class="cls-1" cx="172.92" cy="172" r="6"/><path class="cls-1" d="M228.32,183.84a3.5,3.5,0,0,0-4.84,1,40.49,40.49,0,0,1-67.2,1.15,3.5,3.5,0,0,0-5.74,4,47.49,47.49,0,0,0,78.8-1.35A3.5,3.5,0,0,0,228.32,183.84Z"/></g><path class="cls-1" d="M360.3,167a3.73,3.73,0,0,0-3.52,2.82l-15,43.11-14.13-43.1a3.73,3.73,0,0,0-3.6-2.82h-.4a3.65,3.65,0,0,0-3.6,2.83l-14.13,43.1L291,170a4.06,4.06,0,0,0-3.76-3,3.84,3.84,0,0,0-3.79,3.71,5,5,0,0,0,.34,1.59l.49-.15-.49.16L301.7,222c.66,2,2,3.07,3.76,3.07h.48c1.71,0,3.08-1.11,3.76-3.06l14-41.5,14,41.51a4,4,0,0,0,3.76,3.06h.48A4,4,0,0,0,345.7,222l17.88-49.66.1-.28a4.36,4.36,0,0,0,.33-1.4A3.81,3.81,0,0,0,360.3,167Z"/><path class="cls-1" d="M384.94,181.14c-11.39,0-20.31,9.66-20.31,22v.16c0,12.53,9.07,22,21.11,22a21.43,21.43,0,0,0,15.9-6.35,3.16,3.16,0,0,0,1.13-2.38,3.19,3.19,0,0,0-3.23-3.15,3.23,3.23,0,0,0-2.1.86,16.43,16.43,0,0,1-11.55,4.65c-7.41,0-13-5.18-14-12.94h29.28a3.39,3.39,0,0,0,3.39-3.39C404.61,191.92,397.86,181.14,384.94,181.14Zm-.16,6.21c8.24,0,11.89,6.62,12.6,13H371.95C372.93,192.68,378.14,187.36,384.78,187.36Z"/><path class="cls-1" d="M430.19,181.14c-11.39,0-20.31,9.66-20.31,22v.16c0,12.53,9.07,22,21.11,22a21.43,21.43,0,0,0,15.9-6.35,3.16,3.16,0,0,0,1.13-2.38,3.19,3.19,0,0,0-3.23-3.15,3.23,3.23,0,0,0-2.1.86,16.43,16.43,0,0,1-11.55,4.65c-7.41,0-13-5.18-14-12.94h29.28a3.39,3.39,0,0,0,3.39-3.39C449.86,191.92,443.1,181.14,430.19,181.14Zm-.16,6.21c8.24,0,11.89,6.62,12.6,13H417.19C418.17,192.68,423.38,187.36,430,187.36Z"/><path class="cls-1" d="M480.37,192.33c-12.48-2.67-14.76-5.59-14.76-10.36v-.16c0-5,4.68-8.51,11.38-8.51a22.74,22.74,0,0,1,14.15,4.77,3.45,3.45,0,0,0,2.13.66,3.55,3.55,0,0,0,3.55-3.55,3.78,3.78,0,0,0-1.57-3,29.17,29.17,0,0,0-18.1-5.6c-10.94,0-18.87,6.63-18.87,15.76v.16c0,10.34,7.66,14.13,19.16,16.62,11.87,2.5,14.12,5.49,14.12,10.11v.16c0,5.29-4.91,9-11.94,9a24.83,24.83,0,0,1-17.28-6.48,3.31,3.31,0,0,0-2.28-.87,3.55,3.55,0,0,0-3.55,3.63,3.35,3.35,0,0,0,1.41,2.81,33.35,33.35,0,0,0,21.46,7.6c11.53,0,19.59-6.71,19.59-16.32v-.16C499,200,493.41,195.17,480.37,192.33Z"/><path class="cls-1" d="M539.43,212.91a2.9,2.9,0,0,0-2.11.94c-3.47,3.29-7.12,4.89-11.14,4.89-8.22,0-14.65-6.82-14.65-15.53V203c0-8.66,6.26-15.45,14.25-15.45,5,0,8.32,2.43,10.93,4.83a3.69,3.69,0,0,0,2.32.84,3.47,3.47,0,0,0,3.47-3.47,3.41,3.41,0,0,0-1.12-2.53,22,22,0,0,0-37.18,15.94v.16a21.81,21.81,0,0,0,21.66,21.9,21.34,21.34,0,0,0,15.93-6.78,3.29,3.29,0,0,0,.95-2.28A3.39,3.39,0,0,0,539.43,212.91Z"/><path class="cls-1" d="M572.11,181.14A16,16,0,0,0,558.49,188V168.25a3.59,3.59,0,1,0-7.17,0v52.84a3.59,3.59,0,0,0,3.63,3.63,3.51,3.51,0,0,0,3.55-3.63V200.17c0-7.31,4.88-12.42,11.86-12.42,6.83,0,10.9,4.46,10.9,11.94v21.39a3.59,3.59,0,0,0,3.63,3.63,3.55,3.55,0,0,0,3.55-3.63V198.18C588.42,187.83,582,181.14,572.11,181.14Z"/><path class="cls-1" d="M617,181.14a21.83,21.83,0,0,0-22.06,22.06v.16a22,22,0,0,0,44-.16V203A21.71,21.71,0,0,0,617,181.14Zm0,37.6c-8.26,0-14.73-6.82-14.73-15.53V203c0-8.81,6.27-15.45,14.57-15.45s14.81,6.86,14.81,15.61v.16C631.64,212.13,625.34,218.74,617,218.74Z"/><path class="cls-1" d="M665.54,181.14a21.83,21.83,0,0,0-22.06,22.06v.16a22,22,0,0,0,44-.16V203A21.71,21.71,0,0,0,665.54,181.14Zm0,37.6c-8.26,0-14.73-6.82-14.73-15.53V203c0-8.81,6.27-15.45,14.57-15.45s14.81,6.86,14.81,15.61v.16C680.19,212.13,673.89,218.74,665.54,218.74Z"/><path class="cls-1" d="M699.69,164.62a3.63,3.63,0,0,0-3.55,3.63v52.84a3.59,3.59,0,0,0,3.63,3.63,3.51,3.51,0,0,0,3.55-3.63V168.25A3.63,3.63,0,0,0,699.69,164.62Z"/><path class="cls-1" d="M712.31,169.87v0a6.09,6.09,0,1,1,12.18,0v0a6.09,6.09,0,1,1-12.18,0Zm11.48,0v0a5.39,5.39,0,1,0-10.78,0v0a5.39,5.39,0,1,0,10.78,0ZM716,167.21a.59.59,0,0,1,.59-.6h2.21c1.36,0,2.38.67,2.38,2a2,2,0,0,1-1.37,1.93l1.19,1.4a.68.68,0,0,1,.17.46.58.58,0,0,1-.56.59.71.71,0,0,1-.56-.31l-1.61-2h-1.26v1.65a.62.62,0,0,1-.6.63.6.6,0,0,1-.59-.63Zm2.7,2.48c.8,0,1.26-.42,1.26-1s-.46-1-1.26-1h-1.5v2Z"/></svg>