<svg id="icon" xmlns="http://www.w3.org/2000/svg" viewBox="0 0 813.08 531.05"><defs><style>.cls-1{fill:#fff;}</style></defs><title>Artboard 2 copy</title><g id="icon-2" data-name="icon"><path class="cls-1" d="M482.4,185.37,461.76,164.7a4.73,4.73,0,0,1-1-2.43V130.14a3.8,3.8,0,0,0-3.8-3.8H438.78A3.8,3.8,0,0,0,435,130l-.24,7.69L421.6,124.57a7.1,7.1,0,0,0-9.55-.37l-64.56,55.09a3.8,3.8,0,1,0,4.93,5.78l64.17-54.76,16.87,16.87c3.53,3.53,8.54,1.52,8.7-3.45l.3-9.79h10.69v28.32a12,12,0,0,0,3.23,7.8l16.28,16.31H365.46a6.8,6.8,0,0,0-6.8,6.8v69.28a6.8,6.8,0,0,0,6.8,6.8H467.83a6.8,6.8,0,0,0,6.8-6.8v-55a3.8,3.8,0,0,0-7.6,0v54.19H366.26V194H478.83C483.88,194,486,188.94,482.4,185.37Z"/><circle class="cls-1" cx="434.21" cy="214.27" r="6"/><circle class="cls-1" cx="399.96" cy="214.27" r="6"/><path class="cls-1" d="M455.36,226.11a3.5,3.5,0,0,0-4.84,1,40.49,40.49,0,0,1-67.2,1.15,3.5,3.5,0,1,0-5.74,4,47.49,47.49,0,0,0,78.8-1.35A3.5,3.5,0,0,0,455.36,226.11Z"/></g><path class="cls-1" d="M282.86,311a3.73,3.73,0,0,0-3.52,2.82l-15,43.11-14.13-43.1a3.73,3.73,0,0,0-3.6-2.82h-.4a3.65,3.65,0,0,0-3.6,2.83L228.49,357,213.58,314a4.06,4.06,0,0,0-3.76-3,3.84,3.84,0,0,0-3.79,3.71,5,5,0,0,0,.34,1.59l.49-.15-.49.16L224.26,366c.66,2,2,3.07,3.76,3.07h.48c1.71,0,3.08-1.11,3.76-3.06l14-41.5,14,41.51a4,4,0,0,0,3.76,3.06h.48a4,4,0,0,0,3.76-3.05l17.88-49.66.1-.28a4.36,4.36,0,0,0,.33-1.4A3.81,3.81,0,0,0,282.86,311Z"/><path class="cls-1" d="M307.5,325.16c-11.39,0-20.31,9.66-20.31,22v.16c0,12.53,9.07,22,21.11,22a21.43,21.43,0,0,0,15.9-6.35,3.16,3.16,0,0,0,1.13-2.38,3.19,3.19,0,0,0-3.23-3.15,3.23,3.23,0,0,0-2.1.86,16.43,16.43,0,0,1-11.55,4.65c-7.41,0-13-5.18-14-12.94h29.28a3.39,3.39,0,0,0,3.39-3.39C327.17,335.94,320.41,325.16,307.5,325.16Zm-.16,6.21c8.24,0,11.89,6.62,12.6,13H294.5C295.49,336.7,300.7,331.38,307.34,331.38Z"/><path class="cls-1" d="M352.74,325.16c-11.39,0-20.31,9.66-20.31,22v.16c0,12.53,9.07,22,21.11,22a21.43,21.43,0,0,0,15.9-6.35,3.16,3.16,0,0,0,1.13-2.38,3.19,3.19,0,0,0-3.23-3.15,3.23,3.23,0,0,0-2.1.86,16.43,16.43,0,0,1-11.55,4.65c-7.41,0-13-5.18-14-12.94H369a3.39,3.39,0,0,0,3.39-3.39C372.41,335.94,365.66,325.16,352.74,325.16Zm-.16,6.21c8.24,0,11.89,6.62,12.6,13H339.75C340.73,336.7,345.94,331.38,352.58,331.38Z"/><path class="cls-1" d="M402.93,336.35c-12.48-2.67-14.76-5.59-14.76-10.36v-.16c0-5,4.68-8.51,11.38-8.51a22.74,22.74,0,0,1,14.15,4.77,3.45,3.45,0,0,0,2.13.66,3.55,3.55,0,0,0,3.55-3.55,3.78,3.78,0,0,0-1.57-3,29.17,29.17,0,0,0-18.1-5.6c-10.94,0-18.87,6.63-18.87,15.76v.16c0,10.34,7.66,14.13,19.16,16.62,11.87,2.5,14.12,5.49,14.12,10.11v.16c0,5.29-4.91,9-11.94,9A24.83,24.83,0,0,1,384.9,356a3.31,3.31,0,0,0-2.28-.87,3.55,3.55,0,0,0-3.55,3.63,3.35,3.35,0,0,0,1.41,2.81,33.35,33.35,0,0,0,21.46,7.6c11.53,0,19.59-6.71,19.59-16.32v-.16C421.53,344.07,416,339.19,402.93,336.35Z"/><path class="cls-1" d="M462,356.93a2.9,2.9,0,0,0-2.11.94c-3.47,3.29-7.12,4.89-11.14,4.89-8.22,0-14.65-6.82-14.65-15.53v-.16c0-8.66,6.26-15.45,14.25-15.45,5,0,8.32,2.43,10.93,4.83a3.69,3.69,0,0,0,2.32.84,3.47,3.47,0,0,0,3.47-3.47,3.41,3.41,0,0,0-1.12-2.53,22,22,0,0,0-37.18,15.94v.16a21.81,21.81,0,0,0,21.66,21.9,21.34,21.34,0,0,0,15.93-6.78,3.29,3.29,0,0,0,.95-2.28A3.39,3.39,0,0,0,462,356.93Z"/><path class="cls-1" d="M494.66,325.16A16,16,0,0,0,481,332V312.27a3.59,3.59,0,1,0-7.17,0v52.84a3.59,3.59,0,0,0,3.63,3.63,3.51,3.51,0,0,0,3.55-3.63V344.19c0-7.31,4.88-12.42,11.86-12.42,6.83,0,10.9,4.46,10.9,11.94v21.39a3.59,3.59,0,0,0,3.63,3.63,3.55,3.55,0,0,0,3.55-3.63V342.2C511,331.85,504.58,325.16,494.66,325.16Z"/><path class="cls-1" d="M539.55,325.16a21.83,21.83,0,0,0-22.06,22.06v.16a22,22,0,0,0,44-.16v-.16A21.71,21.71,0,0,0,539.55,325.16Zm0,37.6c-8.26,0-14.73-6.82-14.73-15.53v-.16c0-8.81,6.27-15.45,14.57-15.45s14.81,6.86,14.81,15.61v.16C554.2,356.15,547.9,362.76,539.55,362.76Z"/><path class="cls-1" d="M588.1,325.16A21.83,21.83,0,0,0,566,347.23v.16a22,22,0,0,0,44-.16v-.16A21.71,21.71,0,0,0,588.1,325.16Zm0,37.6c-8.26,0-14.73-6.82-14.73-15.53v-.16c0-8.81,6.27-15.45,14.57-15.45s14.81,6.86,14.81,15.61v.16C602.75,356.15,596.45,362.76,588.1,362.76Z"/><path class="cls-1" d="M622.25,308.64a3.63,3.63,0,0,0-3.55,3.63v52.84a3.59,3.59,0,0,0,3.63,3.63,3.51,3.51,0,0,0,3.55-3.63V312.27A3.63,3.63,0,0,0,622.25,308.64Z"/></svg>